<svg width="150" height="150" viewBox="0 0 150 150" fill="none" xmlns="http://www.w3.org/2000/svg">
<rect x="7.5" y="7.5" width="135" height="135" fill="white"/>
<circle cx="75" cy="75" r="65" fill="white" stroke="#C4C4C4" stroke-width="10"/>
<path d="M19.3242 115V79.48H26.4282V94.264H39.8202V79.48H46.9722V115H39.8202V100.648H26.4282V115H19.3242ZM50.1942 115V79.48H57.2982V115H50.1942ZM60.5798 115V87.592C60.5798 85.48 60.9958 83.832 61.8278 82.648C62.6598 81.464 63.6998 80.648 64.9478 80.2C66.1958 79.72 67.4438 79.48 68.6918 79.48C69.8438 79.48 71.2678 79.496 72.9638 79.528C74.6918 79.56 76.5158 79.624 78.4358 79.72C80.3878 79.784 82.2598 79.912 84.0518 80.104V86.056H70.6598C69.6678 86.056 68.9158 86.328 68.4038 86.872C67.9238 87.384 67.6838 88.056 67.6838 88.888V94.984L81.7478 95.368V100.984L67.6838 101.368V115H60.5798ZM94.0842 115C91.3002 115 89.2042 114.36 87.7962 113.08C86.3882 111.8 85.6842 109.64 85.6842 106.6V79.48H92.7882V105.448C92.7882 106.632 93.0762 107.448 93.6522 107.896C94.2602 108.344 95.0282 108.568 95.9562 108.568H107.188V115H94.0842ZM121.985 115.288C119.553 115.288 117.425 115.064 115.601 114.616C113.777 114.136 112.257 113.272 111.041 112.024C109.825 110.744 108.897 108.92 108.257 106.552C107.649 104.184 107.345 101.096 107.345 97.288C107.345 93.48 107.649 90.392 108.257 88.024C108.897 85.624 109.825 83.784 111.041 82.504C112.289 81.224 113.809 80.344 115.601 79.864C117.425 79.384 119.553 79.144 121.985 79.144C124.417 79.144 126.545 79.384 128.369 79.864C130.193 80.344 131.713 81.224 132.929 82.504C134.145 83.784 135.057 85.624 135.665 88.024C136.273 90.392 136.577 93.48 136.577 97.288C136.577 101.096 136.273 104.184 135.665 106.552C135.057 108.92 134.145 110.744 132.929 112.024C131.713 113.272 130.177 114.136 128.321 114.616C126.497 115.064 124.385 115.288 121.985 115.288ZM121.985 108.904C123.393 108.904 124.577 108.76 125.537 108.472C126.529 108.152 127.297 107.576 127.841 106.744C128.417 105.912 128.833 104.744 129.089 103.24C129.345 101.704 129.473 99.72 129.473 97.288C129.473 94.76 129.345 92.728 129.089 91.192C128.833 89.624 128.417 88.44 127.841 87.64C127.265 86.808 126.497 86.248 125.537 85.96C124.577 85.672 123.393 85.528 121.985 85.528C120.577 85.528 119.393 85.672 118.433 85.96C117.505 86.248 116.737 86.808 116.129 87.64C115.553 88.44 115.121 89.624 114.833 91.192C114.577 92.728 114.449 94.76 114.449 97.288C114.449 99.72 114.561 101.704 114.785 103.24C115.041 104.744 115.457 105.912 116.033 106.744C116.609 107.576 117.377 108.152 118.337 108.472C119.297 108.76 120.513 108.904 121.985 108.904Z" fill="#0DA8E4"/>
<path d="M25.0154 60.9746V74H17.3982V37.0312H31.8201C34.5961 37.0312 37.0336 37.5391 39.1326 38.5547C41.2485 39.5703 42.8735 41.0176 44.0076 42.8965C45.1417 44.7585 45.7087 46.8828 45.7087 49.2695C45.7087 52.8919 44.4646 55.7526 41.9763 57.8516C39.505 59.9336 36.0772 60.9746 31.6931 60.9746H25.0154ZM25.0154 54.8047H31.8201C33.8344 54.8047 35.3663 54.3307 36.4158 53.3828C37.4822 52.4349 38.0154 51.0807 38.0154 49.3203C38.0154 47.5091 37.4822 46.0449 36.4158 44.9277C35.3494 43.8105 33.8767 43.235 31.9978 43.2012H25.0154V54.8047ZM77.1718 56.3535C77.1718 59.9928 76.5286 63.1836 75.2421 65.9258C73.9556 68.668 72.1106 70.7839 69.707 72.2734C67.3202 73.763 64.578 74.5078 61.4804 74.5078C58.4166 74.5078 55.6829 73.7715 53.2792 72.2988C50.8756 70.8262 49.0136 68.7272 47.6933 66.002C46.373 63.2598 45.7043 60.1113 45.6874 56.5566V54.7285C45.6874 51.0892 46.3391 47.89 47.6425 45.1309C48.9628 42.3548 50.8163 40.2305 53.203 38.7578C55.6067 37.2682 58.3489 36.5234 61.4296 36.5234C64.5103 36.5234 67.2441 37.2682 69.6308 38.7578C72.0344 40.2305 73.8879 42.3548 75.1913 45.1309C76.5116 47.89 77.1718 51.0807 77.1718 54.7031V56.3535ZM69.453 54.6777C69.453 50.8014 68.759 47.8561 67.371 45.8418C65.983 43.8275 64.0025 42.8203 61.4296 42.8203C58.8736 42.8203 56.9016 43.819 55.5136 45.8164C54.1256 47.7969 53.4231 50.7083 53.4062 54.5508V56.3535C53.4062 60.1283 54.1002 63.0566 55.4882 65.1387C56.8762 67.2207 58.8736 68.2617 61.4804 68.2617C64.0364 68.2617 65.9999 67.263 67.371 65.2656C68.7421 63.2513 69.4361 60.3229 69.453 56.4805V54.6777ZM86.1641 60.9746V74H78.547V37.0312H92.9688C95.7449 37.0312 98.1824 37.5391 100.281 38.5547C102.397 39.5703 104.022 41.0176 105.156 42.8965C106.29 44.7585 106.857 46.8828 106.857 49.2695C106.857 52.8919 105.613 55.7526 103.125 57.8516C100.654 59.9336 97.226 60.9746 92.8419 60.9746H86.1641ZM86.1641 54.8047H92.9688C94.9831 54.8047 96.5151 54.3307 97.5645 53.3828C98.6309 52.4349 99.1641 51.0807 99.1641 49.3203C99.1641 47.5091 98.6309 46.0449 97.5645 44.9277C96.4981 43.8105 95.0255 43.235 93.1466 43.2012H86.1641V54.8047ZM130.196 57.9785H115.571V67.8809H132.735V74H107.953V37.0312H132.684V43.2012H115.571V52.0117H130.196V57.9785Z" fill="black"/>
<rect x="7.5" y="7.5" width="135" height="135" stroke="#0DA8E4" stroke-width="15" stroke-linecap="square" stroke-dasharray="10 10"/>
</svg>
